# xmcd
#
# Track frame offsets:
#	150
#	20648
#	38091
#	49558
#	69382
#	80895
#	97379
#	115080
#	127984
#	145749
#	168316
#	185656
#	201352
#	213067
#	226181
#	244698
#	266010
#	285010
#	302415
#
# Disc length: 4367 seconds
#
# Revision: 0
# Processed by: cddbd v1.5.1PL0 Copyright (c) Steve Scherf et al.
# Submitted via: EasyCDDAExtractor 7.5.0.1
#
DISCID=05110d13
DTITLE=Various Artist - Нам помогает Никола
DYEAR=2005
DGENRE=Oldies
TTITLE0=Андрей Васильков - Нам помогает Никола
TTITLE1=Анатолий Пшеничный - Солдатская лямка
TTITLE2=Ренат Ибрагимов - Рябина Победы
TTITLE3=Андрей Васильков - Знаменосец, солдат и трубач
TTITLE4=В.Денисов, С.Кузнецов - Берег левый, берег правый
TTITLE5=Леонид Шумский - Сера шинель
TTITLE6=Анатолий Пшеничный - Полевая жена
TTITLE7=Александр Маршал - Ветеран 19-ти лет
TTITLE8=Тимур Гордеев - Скажи, майор
TTITLE9=Анатолий Беляев - Держись, Командир
TTITLE10=Александр Филипенко - Мои друзья - Офицеры России
TTITLE11=В.Денисов, С.Кузнецов - Шестая Рота
TTITLE12=Александр Маршал - Приказ назад
TTITLE13=Анатолий Пшеничный - Сыны спецназа
TTITLE14=Леонид Шумский - Блок-пост
TTITLE15=И. Стрекалов - Кавказкий десант
TTITLE16=Юрий Шурчков - Земляне города
TTITLE17=Анатолий Пшеничный - Посты Памяти
TTITLE18=Николай Караченцов - Архангел Михаил
EXTD=
EXTT0=
EXTT1=
EXTT2=
EXTT3=
EXTT4=
EXTT5=
EXTT6=
EXTT7=
EXTT8=
EXTT9=
EXTT10=
EXTT11=
EXTT12=
EXTT13=
EXTT14=
EXTT15=
EXTT16=
EXTT17=
EXTT18=
PLAYORDER=
